<?xml version="1.0" encoding="utf-8"?>
<!-- Generator: Adobe Illustrator 23.1.0, SVG Export Plug-In . SVG Version: 6.00 Build 0)  -->
<svg version="1.1" id="Layer_1" xmlns="http://www.w3.org/2000/svg" xmlns:xlink="http://www.w3.org/1999/xlink" x="0px" y="0px"
	 viewBox="0 0 595.3 841.9" style="enable-background:new 0 0 595.3 841.9;" xml:space="preserve">
<style type="text/css">
	.st0{fill:none;}
	.st1{fill:url(#SVGID_1_);}
	.st2{fill:url(#SVGID_2_);}
	.st3{fill:url(#SVGID_3_);}
	.st4{fill:url(#SVGID_4_);}
	.st5{fill:url(#SVGID_5_);}
	.st6{fill:url(#SVGID_6_);}
	.st7{fill:url(#SVGID_7_);}
	.st8{fill:#76CEDE;}
	.st9{fill:url(#SVGID_8_);}
	.st10{fill:url(#SVGID_9_);}
	.st11{fill:url(#SVGID_10_);}
	.st12{fill:url(#SVGID_11_);}
	.st13{fill:url(#SVGID_12_);}
	.st14{fill:url(#SVGID_13_);}
	.st15{fill:url(#SVGID_14_);}
	.st16{fill:url(#SVGID_15_);}
	.st17{fill:url(#SVGID_16_);}
	.st18{fill:url(#SVGID_17_);}
	.st19{fill:url(#SVGID_18_);}
	.st20{fill:url(#SVGID_19_);}
	.st21{fill:url(#SVGID_20_);}
	.st22{fill:url(#SVGID_21_);}
	.st23{fill:url(#SVGID_22_);}
	.st24{fill:url(#SVGID_23_);}
</style>
<g>
	<path class="st0" d="M77.8,400c-0.1-0.8-0.6-1.4-1.3-1.6c0,0.5,0,1,0,1.4c0,0.9,0,1.7,0.1,2.6c0.1-0.1,0.2-0.1,0.3-0.2
		C77.6,401.6,77.9,400.9,77.8,400z"/>
	<path class="st0" d="M107.1,371.3c-0.7,0-1.4-0.1-2.1-0.1c-0.7,0-1.4,0-2.1,0.1c0,0.7,0,1.3,0,2c1.5,0,2.8,0,4.2,0
		C107.1,372.6,107.1,371.9,107.1,371.3z"/>
	<path class="st0" d="M133.6,398.3c-0.7,0.3-1.4,0.9-1.4,1.7c-0.2,0.9,0.2,1.7,0.9,2.2c0.1,0.1,0.2,0.1,0.4,0.2
		c0.1-0.9,0.1-1.7,0.1-2.6C133.6,399.3,133.6,398.8,133.6,398.3z"/>
	<linearGradient id="SVGID_1_" gradientUnits="userSpaceOnUse" x1="117.9888" y1="424.6153" x2="120.3886" y2="424.6153">
		<stop  offset="0" style="stop-color:#662D91"/>
		<stop  offset="3.779050e-02" style="stop-color:#622D91"/>
		<stop  offset="0.1554" style="stop-color:#592E91"/>
		<stop  offset="0.2809" style="stop-color:#562E91"/>
		<stop  offset="0.5903" style="stop-color:#2E3192"/>
		<stop  offset="0.8876" style="stop-color:#2E3192"/>
		<stop  offset="1" style="stop-color:#2E3192"/>
	</linearGradient>
	<path class="st1" d="M118,425.3c0.8-0.5,1.6-0.9,2.3-1.4C119.6,424.4,118.8,424.8,118,425.3C118,425.3,118,425.3,118,425.3z"/>
	<linearGradient id="SVGID_2_" gradientUnits="userSpaceOnUse" x1="86.6355" y1="423.4316" x2="91.7819" y2="423.4316">
		<stop  offset="0" style="stop-color:#662D91"/>
		<stop  offset="3.779050e-02" style="stop-color:#622D91"/>
		<stop  offset="0.1554" style="stop-color:#592E91"/>
		<stop  offset="0.2809" style="stop-color:#562E91"/>
		<stop  offset="0.5903" style="stop-color:#2E3192"/>
		<stop  offset="0.8876" style="stop-color:#2E3192"/>
		<stop  offset="1" style="stop-color:#2E3192"/>
	</linearGradient>
	<path class="st2" d="M91.8,425.2c-1.8-1-3.6-2.1-5.1-3.4C88.3,423.1,90,424.3,91.8,425.2z"/>
	<linearGradient id="SVGID_3_" gradientUnits="userSpaceOnUse" x1="106.1355" y1="398.8714" x2="132.9318" y2="398.8714">
		<stop  offset="0" style="stop-color:#572F90"/>
		<stop  offset="0.1244" style="stop-color:#4F3090"/>
		<stop  offset="0.2809" style="stop-color:#4C3190"/>
		<stop  offset="0.6685" style="stop-color:#513191"/>
		<stop  offset="0.8876" style="stop-color:#503290"/>
		<stop  offset="1" style="stop-color:#4F3290"/>
	</linearGradient>
	<path class="st3" d="M132.9,396.7c-0.1-0.9-0.2-1.8-0.5-2.6c-0.1-0.4-0.2-0.8-0.3-1.2c-1.8-6.2-5.2-11.2-10.3-15
		c-3.8-2.9-8.1-4.6-12.9-5.3c0,0.6,0,1.1,0,1.7c-0.1,0.3,0,0.6-0.1,0.9c-0.9,0.1-1.8,0-2.7,0.1c-0.1,0.5,0,0.8,0.2,1.2
		c2.3,4.8,4.5,9.6,6.8,14.4c2,4.2,4,8.4,5.9,12.6c0.1,0.2,0.2,0.3,0.1,0.4c-5.2,3.9-8.5,9-9.6,15.4c3.5,1.1,6.3,3.1,8.4,6.1
		c0.8-0.4,1.6-0.9,2.4-1.4c7-4.7,11.2-11.3,12.5-19.8C129.5,402.6,129.6,398.1,132.9,396.7z"/>
	<linearGradient id="SVGID_4_" gradientUnits="userSpaceOnUse" x1="77.0525" y1="398.8631" x2="103.8092" y2="398.8631">
		<stop  offset="0" style="stop-color:#572F90"/>
		<stop  offset="0.1244" style="stop-color:#4F3090"/>
		<stop  offset="0.2809" style="stop-color:#4C3190"/>
		<stop  offset="0.6685" style="stop-color:#513191"/>
		<stop  offset="0.8876" style="stop-color:#503290"/>
		<stop  offset="1" style="stop-color:#4F3290"/>
	</linearGradient>
	<path class="st4" d="M90.8,403.7c0-0.3,0.1-0.4,0.2-0.6c1.2-2.5,2.4-5,3.5-7.5c3-6.4,6-12.8,9-19.2c0.2-0.4,0.3-0.8,0.2-1.4
		c-0.9,0-1.8,0-2.7,0c0-0.2,0-0.5,0-0.7c0-0.1,0-0.1,0-0.2c0-0.5,0-1.1,0-1.7c-0.3,0-0.5,0.1-0.7,0.1c-0.2,0-0.5,0.1-0.7,0.1
		c-5.5,1.1-10.3,3.6-14.3,7.5c-3.5,3.4-5.9,7.5-7.3,12.1c-0.3,0.9-0.6,1.9-0.6,2.9c0,0-0.1,0,0,0.1c-0.1,0-0.1,0.1-0.1,0.2
		c0,0.4-0.3,0.8-0.1,1.2c1.3,0.6,2.2,1.6,2.4,3.1c0.3,2-0.6,3.4-2.4,4.2c1,7.5,4.9,13.7,9.6,17.7c1.6,1.3,3.3,2.5,5.1,3.4
		c0.1,0,0.1,0.1,0.2,0.1c1-1.5,2.2-2.7,3.7-3.7c1.4-1,3-1.8,4.7-2.4C99.3,412.7,96,407.6,90.8,403.7z"/>
	<linearGradient id="SVGID_5_" gradientUnits="userSpaceOnUse" x1="86.2441" y1="364.3473" x2="140.1795" y2="460.4471">
		<stop  offset="0" style="stop-color:#662D91"/>
		<stop  offset="3.779050e-02" style="stop-color:#622D91"/>
		<stop  offset="0.1554" style="stop-color:#592E91"/>
		<stop  offset="0.2809" style="stop-color:#562E91"/>
		<stop  offset="0.5903" style="stop-color:#2E3192"/>
		<stop  offset="0.8876" style="stop-color:#2E3192"/>
		<stop  offset="1" style="stop-color:#2E3192"/>
	</linearGradient>
	<path class="st5" d="M102.2,397.8c0,1.8,1.6,2.9,2.8,2.8c1.5,0,2.8-1.3,2.8-2.8c0-1.5-1.3-2.8-2.8-2.8
		C103.4,394.9,102.2,396.2,102.2,397.8z"/>
	<linearGradient id="SVGID_6_" gradientUnits="userSpaceOnUse" x1="86.2441" y1="364.3473" x2="140.1795" y2="460.4471">
		<stop  offset="0" style="stop-color:#662D91"/>
		<stop  offset="3.779050e-02" style="stop-color:#622D91"/>
		<stop  offset="0.1554" style="stop-color:#592E91"/>
		<stop  offset="0.2809" style="stop-color:#562E91"/>
		<stop  offset="0.5903" style="stop-color:#2E3192"/>
		<stop  offset="0.8876" style="stop-color:#2E3192"/>
		<stop  offset="1" style="stop-color:#2E3192"/>
	</linearGradient>
	<path class="st6" d="M102.2,397.8c0,1.8,1.6,2.9,2.8,2.8c1.5,0,2.8-1.3,2.8-2.8c0-1.5-1.3-2.8-2.8-2.8
		C103.4,394.9,102.2,396.2,102.2,397.8z"/>
	<linearGradient id="SVGID_7_" gradientUnits="userSpaceOnUse" x1="93.5861" y1="399.3769" x2="116.2947" y2="399.3769">
		<stop  offset="0" style="stop-color:#572F90"/>
		<stop  offset="0.1244" style="stop-color:#4F3090"/>
		<stop  offset="0.2809" style="stop-color:#4C3190"/>
		<stop  offset="0.6685" style="stop-color:#513191"/>
		<stop  offset="0.8876" style="stop-color:#503290"/>
		<stop  offset="1" style="stop-color:#4F3290"/>
	</linearGradient>
	<path class="st7" d="M116.3,403c-3.4-7.2-6.7-14.3-10.1-21.4c0,0-0.1,0-0.1,0c0,3.7,0,7.4,0,11c3.2,1,4.3,3.7,3.8,6.1
		c-0.5,2.4-2.6,4.2-5.3,4.1c-2.4,0-4.4-1.8-4.9-4.5c-0.2-1.1,0-2.2,0.6-3.1c0.7-1.4,1.9-2.2,3.4-2.6c0-3.7,0-7.4,0-11.2
		c0,0-0.1,0-0.1,0c-3.4,7.2-6.7,14.3-10.1,21.5c4.6,3.8,7.5,8.5,8.8,14.2c1.7,0,3.4,0,5.1,0C108.8,411.5,111.8,406.8,116.3,403z"/>
	<path class="st8" d="M137.5,398.2c-0.5-0.8-1.3-1.3-2.2-1.6c-1.8-11.2-7.8-19.2-17.9-24.1c-0.4-0.2-3.8-1.6-8.6-2.5
		c0-0.9,0-1.8,0-2.7c-2.6,0-5.2,0-7.8,0v3c-4.5,0.5-7.4,1.7-9.3,2.6c-9.7,5-15.4,12.9-17.1,23.8c-2,0.7-2.9,2.1-2.9,3.8
		c0,1.7,1,3,2.9,3.8c1.8,13.2,11.1,21.4,18.2,24.1c0.4-0.7,0.8-1.4,1.3-2c2.6-3.5,6.2-5.4,10.8-5.4c4.6,0,8.2,1.9,10.8,5.4
		c0.5,0.6,0.9,1.4,1.4,2.1c10.3-4.9,16.3-13,18.1-24.2c2-0.8,2.9-2,2.9-3.9C138.2,399.5,137.9,398.8,137.5,398.2z M102.9,371.3
		c0-0.7,0-1.5,0-2.2c1.4,0,2.8,0,4.2,0c0,0.7,0,1.5,0,2.2c0,0.7,0,1.3,0,2c-1.4,0-2.8,0-4.2,0C102.9,372.6,102.9,371.9,102.9,371.3z
		 M76.5,402.4c-0.7,0.3-1.4,0.2-2.1-0.2c-0.7-0.5-1.1-1.2-0.9-2.2c0-1,1.2-1.8,2.1-1.8c0.3,0,0.6,0.1,0.8,0.2
		c0.7,0.3,1.2,0.8,1.3,1.6c0.2,0.9-0.1,1.6-0.9,2.2C76.8,402.2,76.6,402.3,76.5,402.4z M95.7,421.5c-1.4,1-2.7,2.3-3.7,3.7
		c-0.1,0-0.1-0.1-0.2-0.1c-1.7-0.9-3.5-2-5.1-3.4c-4.7-4-8.6-10.2-9.6-17.7c1.8-0.8,2.7-2.2,2.4-4.2c-0.2-1.4-1.1-2.4-2.4-3.1
		c-0.1-0.4,0.1-0.8,0.1-1.2c0-0.1,0-0.1,0.1-0.2c0,0,0-0.1,0-0.1c0-1,0.3-1.9,0.6-2.9c1.4-4.7,3.8-8.7,7.3-12.1
		c4-3.9,8.8-6.5,14.3-7.5c0.2,0,0.5-0.1,0.7-0.1c0.2,0,0.5-0.1,0.7-0.1c0,0.6,0,1.1,0,1.7c0,0.1,0,0.1,0,0.2c0,0.2,0,0.4,0,0.7
		c0.9,0,1.8,0,2.7,0c0.1,0.5,0,0.9-0.2,1.4c-3,6.4-6,12.8-9,19.2c-1.2,2.5-2.4,5-3.5,7.5c-0.1,0.2-0.2,0.4-0.2,0.6
		c5.2,3.9,8.5,8.9,9.6,15.4C98.7,419.8,97.1,420.5,95.7,421.5z M105,394.9c1.5,0,2.8,1.3,2.8,2.8c0,1.5-1.3,2.8-2.8,2.8
		c-1.2,0.1-2.8-1-2.8-2.8C102.2,396.2,103.4,394.9,105,394.9z M102.4,417.3c-1.3-5.7-4.2-10.5-8.8-14.2c3.4-7.2,6.8-14.4,10.1-21.5
		c0,0,0.1,0,0.1,0c0,3.7,0,7.4,0,11.2c-1.5,0.4-2.7,1.3-3.4,2.6c-0.5,1-0.8,2-0.6,3.1c0.5,2.7,2.4,4.4,4.9,4.5
		c2.7,0,4.8-1.7,5.3-4.1c0.5-2.4-0.6-5-3.8-6.1c0-3.7,0-7.4,0-11c0,0,0.1,0,0.1,0c3.3,7.1,6.7,14.2,10.1,21.4
		c-4.5,3.8-7.5,8.5-8.8,14.3C105.8,417.3,104.2,417.3,102.4,417.3z M120.4,423.9c-0.8,0.5-1.5,1-2.3,1.4c0,0,0,0-0.1-0.1
		c-2.1-3-4.9-4.9-8.4-6.1c1.1-6.5,4.4-11.5,9.6-15.4c0.1-0.1,0-0.3-0.1-0.4c-2-4.2-4-8.4-5.9-12.6c-2.3-4.8-4.5-9.6-6.8-14.4
		c-0.2-0.4-0.2-0.8-0.2-1.2c0.9-0.1,1.8,0,2.7-0.1c0.1-0.3,0-0.6,0.1-0.9c0-0.5,0-1.1,0-1.7c4.8,0.7,9,2.4,12.9,5.3
		c5.1,3.9,8.6,8.9,10.3,15c0.1,0.4,0.2,0.8,0.3,1.2c0.3,0.9,0.4,1.8,0.5,2.6c-3.3,1.5-3.4,5.9,0,7.4
		C131.5,412.6,127.4,419.2,120.4,423.9z M135.5,402.2c-0.7,0.4-1.3,0.5-2,0.2c-0.1-0.1-0.2-0.1-0.4-0.2c-0.8-0.5-1.1-1.2-0.9-2.2
		c0-0.8,0.7-1.4,1.4-1.7c0.2-0.1,0.5-0.1,0.7-0.1c1.1,0,2,0.7,2.2,1.8C136.6,400.9,136.2,401.6,135.5,402.2z"/>
</g>
<g>
	<linearGradient id="SVGID_8_" gradientUnits="userSpaceOnUse" x1="150.9018" y1="398.3598" x2="176.8483" y2="398.3598">
		<stop  offset="0" style="stop-color:#572F90"/>
		<stop  offset="0.1244" style="stop-color:#4F3090"/>
		<stop  offset="0.2809" style="stop-color:#4C3190"/>
		<stop  offset="0.6685" style="stop-color:#513191"/>
		<stop  offset="0.8876" style="stop-color:#503290"/>
		<stop  offset="1" style="stop-color:#4F3290"/>
	</linearGradient>
	<polygon class="st9" points="158.7,403.4 175.9,403.4 175.9,396.2 158.7,396.2 158.7,388.1 176.8,388.1 176.8,380.6 150.9,380.6 
		150.9,416.1 158.7,416.1 	"/>
	<linearGradient id="SVGID_9_" gradientUnits="userSpaceOnUse" x1="179.5655" y1="403.0876" x2="193.6558" y2="403.0876">
		<stop  offset="0" style="stop-color:#572F90"/>
		<stop  offset="0.1244" style="stop-color:#4F3090"/>
		<stop  offset="0.2809" style="stop-color:#4C3190"/>
		<stop  offset="0.6685" style="stop-color:#513191"/>
		<stop  offset="0.8876" style="stop-color:#503290"/>
		<stop  offset="1" style="stop-color:#4F3290"/>
	</linearGradient>
	<path class="st10" d="M186.8,402.7c0-4,3.3-5.5,6.2-5.5h0.7V390H193c-2,0-4.3,0.3-6.2,2.2v-1.6h-7.3v25.5h7.3V402.7z"/>
	<linearGradient id="SVGID_10_" gradientUnits="userSpaceOnUse" x1="194.4117" y1="403.3573" x2="220.8583" y2="403.3573">
		<stop  offset="0" style="stop-color:#572F90"/>
		<stop  offset="0.1244" style="stop-color:#4F3090"/>
		<stop  offset="0.2809" style="stop-color:#4C3190"/>
		<stop  offset="0.6685" style="stop-color:#513191"/>
		<stop  offset="0.8876" style="stop-color:#503290"/>
		<stop  offset="1" style="stop-color:#4F3290"/>
	</linearGradient>
	<path class="st11" d="M208.3,416.8c4.2,0,8.4-1.6,10.9-4.1l0.4-0.5l-4.7-4.7l-0.5,0.5c-1.3,1.3-4.1,2.1-6,2.1
		c-3.3,0-5.7-1.5-6.4-3.8h18.7l0.1-0.6c0.5-5.1-0.6-9.2-3.1-11.9c-2.2-2.5-5.6-3.8-9.8-3.8c-4,0-7.4,1.3-9.8,3.8
		c-2.4,2.4-3.7,5.8-3.7,9.5c0,4,1.3,7.4,3.7,9.8C200.6,415.5,204.1,416.8,208.3,416.8z M213.6,399.9h-11.3c1-2.2,3-3.4,5.8-3.4
		C209.9,396.5,212.8,397,213.6,399.9z"/>
	<linearGradient id="SVGID_11_" gradientUnits="userSpaceOnUse" x1="222.9776" y1="403.3573" x2="249.4239" y2="403.3573">
		<stop  offset="0" style="stop-color:#572F90"/>
		<stop  offset="0.1244" style="stop-color:#4F3090"/>
		<stop  offset="0.2809" style="stop-color:#4C3190"/>
		<stop  offset="0.6685" style="stop-color:#513191"/>
		<stop  offset="0.8876" style="stop-color:#503290"/>
		<stop  offset="1" style="stop-color:#4F3290"/>
	</linearGradient>
	<path class="st12" d="M243,408c-1.3,1.3-4.1,2.1-6,2.1c-3.3,0-5.7-1.5-6.4-3.8h18.7l0.1-0.6c0.5-5.1-0.6-9.2-3.1-11.9
		c-2.2-2.5-5.6-3.8-9.8-3.8c-4,0-7.4,1.3-9.8,3.8c-2.4,2.4-3.7,5.8-3.7,9.5c0,4,1.3,7.4,3.7,9.8c2.5,2.4,6,3.7,10.2,3.7
		c4.2,0,8.4-1.6,10.9-4.1l0.4-0.5l-4.7-4.7L243,408z M242.1,399.9h-11.3c1-2.2,3-3.4,5.8-3.4C238.4,396.5,241.4,397,242.1,399.9z"/>
	<linearGradient id="SVGID_12_" gradientUnits="userSpaceOnUse" x1="260.2841" y1="398.1882" x2="291.1097" y2="398.1882">
		<stop  offset="0" style="stop-color:#572F90"/>
		<stop  offset="0.1244" style="stop-color:#4F3090"/>
		<stop  offset="0.2809" style="stop-color:#4C3190"/>
		<stop  offset="0.6685" style="stop-color:#513191"/>
		<stop  offset="0.8876" style="stop-color:#503290"/>
		<stop  offset="1" style="stop-color:#4F3290"/>
	</linearGradient>
	<path class="st13" d="M291.1,405.4c0-8.6-6.9-10.7-14.4-11.6c-4.2-0.5-7.1-1.3-7.1-3.7c0-2.4,2.5-3.9,6.5-3.9
		c3.6,0,6.6,1.8,7.6,3.5l0.3,0.5l6.3-3.2l-0.3-0.6c-2.3-4.7-7.2-7.2-14.1-7.2c-6.9,0.1-13.9,3.4-13.9,10.6c0,3.8,1.4,6.5,4.4,8.3
		c2.8,1.7,6.6,2.4,9.6,2.7c6.6,0.7,7.4,2.9,7.4,4.4c0,4.2-5.5,4.5-7.2,4.5c-4.4,0-7.8-1.9-9-5l-0.3-0.7l-6.6,3.4l0.2,0.6
		c2.4,5.9,7.5,8.8,15.5,8.8c4.2,0,7.8-0.9,10.4-2.7C289.5,412.3,291.1,409.2,291.1,405.4z"/>
	<linearGradient id="SVGID_13_" gradientUnits="userSpaceOnUse" x1="294.1697" y1="398.4333" x2="307.0837" y2="398.4333">
		<stop  offset="0" style="stop-color:#572F90"/>
		<stop  offset="0.1244" style="stop-color:#4F3090"/>
		<stop  offset="0.2809" style="stop-color:#4C3190"/>
		<stop  offset="0.6685" style="stop-color:#513191"/>
		<stop  offset="0.8876" style="stop-color:#503290"/>
		<stop  offset="1" style="stop-color:#4F3290"/>
	</linearGradient>
	<path class="st14" d="M303,407v-9.8h2.3v-6.4H303v-10.3h-7.3v10.3h-1.6v6.4h1.6v9.8c0,3,1.1,5.5,3.3,7.2c1.9,1.5,4.5,2.3,7.4,2.3
		h0.7v-6.7h-0.7C305.1,409.7,303,409,303,407z"/>
	<linearGradient id="SVGID_14_" gradientUnits="userSpaceOnUse" x1="307.7415" y1="403.4304" x2="334.1778" y2="403.4304">
		<stop  offset="0" style="stop-color:#572F90"/>
		<stop  offset="0.1244" style="stop-color:#4F3090"/>
		<stop  offset="0.2809" style="stop-color:#4C3190"/>
		<stop  offset="0.6685" style="stop-color:#513191"/>
		<stop  offset="0.8876" style="stop-color:#503290"/>
		<stop  offset="1" style="stop-color:#4F3290"/>
	</linearGradient>
	<path class="st15" d="M320.9,390.2c-3.9,0-7.2,1.4-9.6,3.9c-2.3,2.4-3.5,5.7-3.5,9.3c0,3.6,1.2,7,3.5,9.4c2.4,2.5,5.8,3.9,9.7,3.9
		c3.9,0,7.3-1.3,9.7-3.9c2.3-2.4,3.5-5.7,3.5-9.4c0-3.6-1.3-6.9-3.6-9.3C328.1,391.6,324.7,390.2,320.9,390.2z M326.8,403.4
		c0,3.2-1.8,6.5-5.9,6.5c-4.1,0-5.9-3.2-5.9-6.5c0-3.1,1.9-6.5,5.9-6.5C324.6,396.9,326.8,400.2,326.8,403.4z"/>
	<linearGradient id="SVGID_15_" gradientUnits="userSpaceOnUse" x1="335.5718" y1="403.4308" x2="359.2995" y2="403.4308">
		<stop  offset="0" style="stop-color:#572F90"/>
		<stop  offset="0.1244" style="stop-color:#4F3090"/>
		<stop  offset="0.2809" style="stop-color:#4C3190"/>
		<stop  offset="0.6685" style="stop-color:#513191"/>
		<stop  offset="0.8876" style="stop-color:#503290"/>
		<stop  offset="1" style="stop-color:#4F3290"/>
	</linearGradient>
	<path class="st16" d="M353.9,408c-1.2,1.2-2.8,1.8-4.8,1.8c-2.9,0-6.2-1.7-6.2-6.4c0-3.8,2.6-6.5,6.3-6.5c1.6,0,3.2,0.6,4.4,1.7
		l0.5,0.4l4.6-4.9l-0.5-0.4c-2.7-2.6-5.4-3.8-9.2-3.8c-3.8,0-7.1,1.2-9.5,3.3c-2.6,2.4-4,5.9-4,10.1c0,4.2,1.4,7.7,4,10.1
		c2.4,2.2,5.7,3.3,9.5,3.3c3.9,0,6.9-1.2,9.8-4l0.5-0.5l-5-4.8L353.9,408z"/>
	<linearGradient id="SVGID_16_" gradientUnits="userSpaceOnUse" x1="360.2178" y1="398.3598" x2="384.1555" y2="398.3598">
		<stop  offset="0" style="stop-color:#572F90"/>
		<stop  offset="0.1244" style="stop-color:#4F3090"/>
		<stop  offset="0.2809" style="stop-color:#4C3190"/>
		<stop  offset="0.6685" style="stop-color:#513191"/>
		<stop  offset="0.8876" style="stop-color:#503290"/>
		<stop  offset="1" style="stop-color:#4F3290"/>
	</linearGradient>
	<polygon class="st17" points="373.2,402.7 382.8,391.9 382.8,390.7 374.7,390.7 367.5,399.2 367.5,380.6 360.2,380.6 360.2,416.1 
		367.5,416.1 367.5,406.3 376,416.1 384.2,416.1 384.2,414.8 	"/>
</g>
<g>
	<linearGradient id="SVGID_17_" gradientUnits="userSpaceOnUse" x1="257.3505" y1="332.5994" x2="1009.3754" y2="675.4892">
		<stop  offset="0" style="stop-color:#572F90"/>
		<stop  offset="0.1244" style="stop-color:#4F3090"/>
		<stop  offset="0.2809" style="stop-color:#4C3190"/>
		<stop  offset="0.6685" style="stop-color:#513191"/>
		<stop  offset="0.8876" style="stop-color:#503290"/>
		<stop  offset="1" style="stop-color:#4F3290"/>
	</linearGradient>
	<path class="st18" d="M420.7,386.4c-3.2-3.6-7.8-5.5-13.4-5.5h-14.1v35.6h14.1c5.3,0,9.7-1.7,12.9-4.9c3.2-3.3,5-8.1,4.9-13.2
		C425,393.8,423.4,389.5,420.7,386.4z M400.8,388.4h6.4c7.2,0,9.9,5.2,10.1,10c0.1,3.2-0.9,6-2.7,7.9c-1.8,1.8-4.2,2.7-7.3,2.7h-6.4
		V388.4z"/>
	<linearGradient id="SVGID_18_" gradientUnits="userSpaceOnUse" x1="262.1043" y1="322.1734" x2="1014.1292" y2="665.0632">
		<stop  offset="0" style="stop-color:#572F90"/>
		<stop  offset="0.1244" style="stop-color:#4F3090"/>
		<stop  offset="0.2809" style="stop-color:#4C3190"/>
		<stop  offset="0.6685" style="stop-color:#513191"/>
		<stop  offset="0.8876" style="stop-color:#503290"/>
		<stop  offset="1" style="stop-color:#4F3290"/>
	</linearGradient>
	<path class="st19" d="M441,390.4c-4,0-7.4,1.3-9.8,3.8c-2.4,2.4-3.7,5.8-3.7,9.5c0,4,1.3,7.4,3.7,9.8c2.5,2.4,6,3.7,10.2,3.7
		c4.2,0,8.4-1.6,10.9-4.1l0.4-0.5l-4.7-4.7l-0.5,0.5c-1.3,1.3-4.1,2.1-6,2.1c-3.3,0-5.7-1.5-6.4-3.8h18.7l0.1-0.6
		c0.5-5.1-0.6-9.2-3.1-11.9C448.6,391.7,445.2,390.4,441,390.4z M446.7,400.4h-11.3c1-2.2,3-3.4,5.8-3.4
		C443,397,445.9,397.4,446.7,400.4z"/>
	<linearGradient id="SVGID_19_" gradientUnits="userSpaceOnUse" x1="266.5825" y1="312.3518" x2="1018.6074" y2="655.2415">
		<stop  offset="0" style="stop-color:#572F90"/>
		<stop  offset="0.1244" style="stop-color:#4F3090"/>
		<stop  offset="0.2809" style="stop-color:#4C3190"/>
		<stop  offset="0.6685" style="stop-color:#513191"/>
		<stop  offset="0.8876" style="stop-color:#503290"/>
		<stop  offset="1" style="stop-color:#4F3290"/>
	</linearGradient>
	<path class="st20" d="M474.9,402.1c-2.2-1.2-5-1.5-7.1-1.7c-3.9-0.2-3.9-1.6-3.9-2c0-1.6,2.6-1.7,3.8-1.7c2.4,0,4.1,0.6,5.5,2
		l0.5,0.5l4.2-4.9l-0.5-0.4c-2.7-2.4-5.6-3.3-9.8-3.3c-2.6,0-5.2,0.6-7.1,1.8c-2.5,1.5-3.8,3.7-3.8,6.4c0,4.7,3.8,7.6,10.6,8.1
		c3.9,0.2,4.2,1.1,4.2,1.9c0,1.2-1.6,2.2-3.6,2.2c0,0-0.1,0-0.1,0c-2.4,0-6.2-1.4-7.9-3.2l-0.6-0.6l-3.7,5.4l0.4,0.4
		c3.8,4,8,4.5,11.6,4.5c3.4,0,6.2-0.9,8.2-2.5c1.8-1.5,2.8-3.7,2.8-6.1C478.7,405.7,477.4,403.5,474.9,402.1z"/>
	<linearGradient id="SVGID_20_" gradientUnits="userSpaceOnUse" x1="276.8332" y1="289.87" x2="1028.8582" y2="632.7598">
		<stop  offset="0" style="stop-color:#572F90"/>
		<stop  offset="0.1244" style="stop-color:#4F3090"/>
		<stop  offset="0.2809" style="stop-color:#4C3190"/>
		<stop  offset="0.6685" style="stop-color:#513191"/>
		<stop  offset="0.8876" style="stop-color:#503290"/>
		<stop  offset="1" style="stop-color:#4F3290"/>
	</linearGradient>
	<rect x="481.2" y="381.2" class="st21" width="7.2" height="6.9"/>
	<linearGradient id="SVGID_21_" gradientUnits="userSpaceOnUse" x1="269.6331" y1="305.6613" x2="1021.658" y2="648.5511">
		<stop  offset="0" style="stop-color:#572F90"/>
		<stop  offset="0.1244" style="stop-color:#4F3090"/>
		<stop  offset="0.2809" style="stop-color:#4C3190"/>
		<stop  offset="0.6685" style="stop-color:#513191"/>
		<stop  offset="0.8876" style="stop-color:#503290"/>
		<stop  offset="1" style="stop-color:#4F3290"/>
	</linearGradient>
	<rect x="481.2" y="391" class="st22" width="7.3" height="25.6"/>
	<linearGradient id="SVGID_22_" gradientUnits="userSpaceOnUse" x1="272.148" y1="300.1455" x2="1024.1729" y2="643.0353">
		<stop  offset="0" style="stop-color:#572F90"/>
		<stop  offset="0.1244" style="stop-color:#4F3090"/>
		<stop  offset="0.2809" style="stop-color:#4C3190"/>
		<stop  offset="0.6685" style="stop-color:#513191"/>
		<stop  offset="0.8876" style="stop-color:#503290"/>
		<stop  offset="1" style="stop-color:#4F3290"/>
	</linearGradient>
	<path class="st23" d="M509.8,391.7c-1.6-0.8-3.8-1.4-5.5-1.4c-3.5,0-6.8,1.2-9.1,3.5c-2.5,2.4-3.8,5.6-3.8,9.4
		c0,5.3,2.3,9.3,6.2,11.3l-6.2,1.2l0.1,0.6c0.5,2.8,1.9,5.3,4.3,7c2.3,1.7,5.2,2.6,8.5,2.6c3.5,0,6.7-1.2,9-3.4
		c2.5-2.4,3.8-6,3.8-10.2v-21.9h-7.3V391.7z M498.6,415L498.6,415c1.7,0.6,3.6,1,5.7,1c1.6,0,3.8-0.7,5.2-1.7
		c-0.7,3.2-3.1,4.7-5.3,4.7C501.3,419,499,417.4,498.6,415z M504.3,409.3c-3.4,0-5.7-2.4-5.7-6.1c0-3.6,2.3-6.2,5.7-6.2
		c3.3,0,5.6,2.6,5.6,6.2C509.9,406.8,507.6,409.3,504.3,409.3z"/>
	<linearGradient id="SVGID_23_" gradientUnits="userSpaceOnUse" x1="277.0887" y1="289.3096" x2="1029.1136" y2="632.1993">
		<stop  offset="0" style="stop-color:#572F90"/>
		<stop  offset="0.1244" style="stop-color:#4F3090"/>
		<stop  offset="0.2809" style="stop-color:#4C3190"/>
		<stop  offset="0.6685" style="stop-color:#513191"/>
		<stop  offset="0.8876" style="stop-color:#503290"/>
		<stop  offset="1" style="stop-color:#4F3290"/>
	</linearGradient>
	<path class="st24" d="M533.8,390.7c-3,0-5.2,0.7-7.3,2.3v-2h-7v25.5h7.2v-13.5c0-3.4,2.2-5.6,5.5-5.6c3.8,0,5.2,3,5.2,5.8v13.3h7.3
		v-13.3c0-3.8-1.1-7-3.2-9.2C539.6,391.9,536.9,390.7,533.8,390.7z"/>
</g>
</svg>
